        <svg
          xmlns="http://www.w3.org/2000/svg"
          viewBox="0 0 210 43"
          height="1.5rem"
          className="sc-bdvvtL kiWkBU"
        >
          <g fill="none" fillRule="evenodd">
            <path fill="#FFFFFF" d="M0 42.536h38.695V.085H0z"></path>
            <path fill="#0076BB" d="M1.716 40.815H36.98V1.807H1.716z"></path>
            <path
              className="minorFill"
              fill="#F5BC47"
              d="M36.98 14.043c-7.581-2.245-12.555 1.71-15.547 6.087-3.685 5.346-2.188 20.685-2.188 20.685H5.995c-1.072-6.253 1.65-16.62 6.892-23.033C22.13 6.51 36.98 10.41 36.98 10.41v3.633zM26.867 6.797c0-.918.737-1.654 1.653-1.654a1.65 1.65 0 0 1 1.652 1.654 1.653 1.653 0 0 1-3.305 0M32.106 6.797a1.65 1.65 0 1 1 3.303 0c0 .908-.74 1.651-1.653 1.651-.91 0-1.65-.743-1.65-1.651"
            ></path>
            <path
              fill="#0076BB"
              d="M51.782 5.453a3.68 3.68 0 0 1 3.694-3.689 3.696 3.696 0 0 1 3.705 3.69c0 2.039-1.665 3.687-3.705 3.687a3.682 3.682 0 0 1-3.694-3.688M63.484 5.453a3.69 3.69 0 0 1 3.71-3.689 3.692 3.692 0 0 1 3.69 3.69 3.695 3.695 0 0 1-3.69 3.687 3.692 3.692 0 0 1-3.71-3.688M160.982 12.545v18.972c0 1.737-.982 4.394-6.456 4.394-5.618 0-6.258-2.657-6.33-4.394V12.545h-6.932v18.887c0 2.712 1.381 5.947 6.967 8.466 1.831.564 4.126.894 6.484.894 2.348 0 4.776-.369 6.863-1.122 5.56-2.22 6.304-5.825 6.304-8.238V12.545h-6.9zM61.454 35.883c-2.223 0-4.424-.528-6.192-1.843-2.199-1.662-3.306-4.619-3.356-7.59.05-2.971 1.157-5.944 3.356-7.59 1.768-1.313 3.969-1.838 6.192-1.838 2.2 0 4.405.525 6.156 1.839 2.2 1.645 3.323 4.618 3.372 7.589-.049 2.971-1.172 5.928-3.372 7.59-1.751 1.315-3.956 1.843-6.156 1.843M77.59 26.45c0-4.121-1.827-8.269-4.959-10.93-2.82-2.379-6.906-3.43-11.177-3.43-4.285 0-8.39 1.051-11.212 3.43-3.131 2.661-4.97 6.809-4.97 10.93 0 4.125 1.839 8.25 4.97 10.93 2.821 2.36 6.927 3.412 11.212 3.412 4.27 0 8.356-1.053 11.177-3.413 3.132-2.679 4.96-6.804 4.96-10.93M179.966 17.233h9.337c3.1 0 4.222 1.137 4.222 3.098.397 2.69-2.49 4.076-4.116 4.076h-9.443v-7.174zm-6.893 22.703h6.893V29.104h8.092c2.417 0 4.065.915 4.167 2.751-.102 1.99-.102 4.161 0 5.525.088.914.371 1.713.912 2.556h7.412v-1.018c-.729-.38-1.276-.718-1.276-2.252-.047-1.38-.14-4.991-.336-6.123-.363-2.485-2.568-3.166-3.726-3.796 2.26-1.085 3.726-1.959 4.55-4.334.825-2.344.144-4.302-.309-5.512-.963-2.976-4.372-4.256-7.734-4.355h-18.645v27.39zM106.676 20.892c.273-.908-.184-3.458-1.935-5.298-3.256-3.386-9.528-3.5-11.326-3.5-8.198 0-12.062 3.231-12.618 7.598-.554 4.422 2.445 6.565 6.08 7.579 4.331 1.195 10.964 1.195 13.168 3.08 1.663 1.355 1.336 3.497-.135 4.628-.88.667-3.033 1.237-5.342 1.266-2.308.079-4.789-.34-6.313-1.61-1.145-.98-1.421-2.107-1.421-2.828h-6.716c.228 2.6 1.695 5.302 4.696 7.066 2.482 1.47 6.526 1.966 8.232 1.922 3.736-.032 7.646-.418 10.503-1.922 4.185-2.21 5.989-8.706 2.12-12.016-2.12-1.771-6.085-2.449-7.927-2.695-1.294-.192-7.347-1.17-8.463-1.52-1.52-.477-2.264-1.035-2.078-2.933.229-2.24 2.714-3.179 6.092-3.145 4.732.079 6.99 2.12 6.892 4.328h6.491zM136.726 20.892c.273-.908-.184-3.458-1.936-5.298-3.256-3.386-9.528-3.5-11.326-3.5-8.197 0-12.061 3.231-12.617 7.598-.554 4.422 2.444 6.565 6.08 7.579 4.33 1.195 10.963 1.195 13.168 3.08 1.663 1.355 1.335 3.497-.136 4.628-.879.667-3.033 1.237-5.342 1.266-2.308.079-4.788-.34-6.313-1.61-1.145-.98-1.421-2.107-1.421-2.828h-6.715c.227 2.6 1.695 5.302 4.695 7.066 2.482 1.47 6.526 1.966 8.233 1.922 3.736-.032 7.646-.418 10.503-1.922 4.184-2.21 5.989-8.706 2.12-12.016-2.12-1.771-6.085-2.449-7.928-2.695-1.293-.192-7.347-1.17-8.462-1.52-1.521-.477-2.265-1.035-2.079-2.933.23-2.24 2.715-3.179 6.093-3.145 4.73.079 6.99 2.12 6.89 4.328h6.493z"
            ></path>
            <path
              fill="#0076BB"
              d="M202.976 37.03c0 1.895 1.522 3.308 3.326 3.308 1.805 0 3.303-1.413 3.303-3.309 0-1.853-1.498-3.28-3.303-3.28-1.804 0-3.326 1.427-3.326 3.28zm.611 0c0-1.58 1.162-2.79 2.715-2.79 1.527 0 2.7 1.21 2.7 2.79 0 1.613-1.173 2.83-2.7 2.83-1.553 0-2.715-1.217-2.715-2.83zm1.433 1.939h.587V37.31h.642l1.046 1.659h.647l-1.104-1.702c.573-.068 1.02-.358 1.02-1.047 0-.735-.447-1.089-1.355-1.089h-1.483v3.838zm.587-3.368h.8c.404 0 .85.081.85.59 0 .611-.492.629-1.019.629h-.631v-1.219z"
            ></path>
          </g>
        </svg>